<?xml version="1.0" encoding="UTF-8" standalone="no"?>
<!DOCTYPE svg PUBLIC "-//W3C//DTD SVG 1.1//EN"
 "http://www.w3.org/Graphics/SVG/1.1/DTD/svg11.dtd">
<!-- Generated by graphviz version 5.0.0 (20220707.1540)
 -->
<!-- Title: StorageDiagram Pages: 1 -->
<svg width="1551pt" height="463pt"
 viewBox="0.00 0.00 1550.63 463.20" xmlns="http://www.w3.org/2000/svg" xmlns:xlink="http://www.w3.org/1999/xlink">
<g id="graph0" class="graph" transform="scale(1 1) rotate(0) translate(4 459.2)">
<title>StorageDiagram</title>
<polygon fill="white" stroke="transparent" points="-4,4 -4,-459.2 1546.63,-459.2 1546.63,4 -4,4"/>
<!-- 5 -->
<g id="node1" class="node">
<title>5</title>
<polygon fill="#f2f2f2" stroke="black" points="0,-164.7 0,-313.5 620.1,-313.5 620.1,-164.7 0,-164.7"/>
<text text-anchor="middle" x="310.05" y="-296.9" font-family="Courier New" font-size="14.00">BitmaskBingo &lt;&lt;Contract&gt;&gt;</text>
<polyline fill="none" stroke="black" points="0,-288.7 620.1,-288.7 "/>
<text text-anchor="middle" x="24.8" y="-272.1" font-family="Courier New" font-size="14.00">slot</text>
<polyline fill="none" stroke="black" points="0,-263.9 49.61,-263.9 "/>
<text text-anchor="middle" x="24.8" y="-247.3" font-family="Courier New" font-size="14.00">0&#45;1</text>
<polyline fill="none" stroke="black" points="0,-239.1 49.61,-239.1 "/>
<text text-anchor="middle" x="24.8" y="-222.5" font-family="Courier New" font-size="14.00">2&#45;4</text>
<polyline fill="none" stroke="black" points="0,-214.3 49.61,-214.3 "/>
<text text-anchor="middle" x="24.8" y="-197.7" font-family="Courier New" font-size="14.00">5</text>
<polyline fill="none" stroke="black" points="0,-189.5 49.61,-189.5 "/>
<text text-anchor="middle" x="24.8" y="-172.9" font-family="Courier New" font-size="14.00">6</text>
<polyline fill="none" stroke="black" points="49.61,-164.7 49.61,-288.7 "/>
<text text-anchor="middle" x="334.85" y="-272.1" font-family="Courier New" font-size="14.00">type: &lt;inherited contract&gt;.variable (bytes)</text>
<polyline fill="none" stroke="black" points="49.61,-263.9 620.1,-263.9 "/>
<text text-anchor="middle" x="334.74" y="-247.3" font-family="Courier New" font-size="14.00">uint32[12]: GameMechanics.winningBingoMasks (64)</text>
<polyline fill="none" stroke="black" points="49.61,-239.1 620.1,-239.1 "/>
<text text-anchor="middle" x="334.53" y="-222.5" font-family="Courier New" font-size="14.00">GlobalGameSettings: gameSettings (96)</text>
<polyline fill="none" stroke="black" points="49.61,-214.3 620.1,-214.3 "/>
<text text-anchor="middle" x="334.83" y="-197.7" font-family="Courier New" font-size="14.00">mapping(bytes32=&gt;Game): gameRegistry (32)</text>
<polyline fill="none" stroke="black" points="49.61,-189.5 620.1,-189.5 "/>
<text text-anchor="middle" x="334.85" y="-172.9" font-family="Courier New" font-size="14.00">mapping(address=&gt;mapping(bytes32=&gt;BingoCard)): playerRegistry (32)</text>
</g>
<!-- 1 -->
<g id="node2" class="node">
<title>1</title>
<polygon fill="#f2f2f2" stroke="black" points="674.5,-355.5 674.5,-454.7 1524.22,-454.7 1524.22,-355.5 674.5,-355.5"/>
<text text-anchor="middle" x="1099.36" y="-438.1" font-family="Courier New" font-size="14.00">uint32[12]: winningBingoMasks &lt;&lt;Array&gt;&gt;</text>
<polyline fill="none" stroke="black" points="674.5,-429.9 1524.22,-429.9 "/>
<text text-anchor="middle" x="699.31" y="-413.3" font-family="Courier New" font-size="14.00">slot</text>
<polyline fill="none" stroke="black" points="674.5,-405.1 724.11,-405.1 "/>
<text text-anchor="middle" x="699.31" y="-388.5" font-family="Courier New" font-size="14.00">0</text>
<polyline fill="none" stroke="black" points="674.5,-380.3 724.11,-380.3 "/>
<text text-anchor="middle" x="699.31" y="-363.7" font-family="Courier New" font-size="14.00">1</text>
<polyline fill="none" stroke="black" points="724.11,-355.5 724.11,-429.9 "/>
<text text-anchor="middle" x="1124.16" y="-413.3" font-family="Courier New" font-size="14.00">type: variable (bytes)</text>
<polyline fill="none" stroke="black" points="724.11,-405.1 1524.22,-405.1 "/>
<text text-anchor="middle" x="774.12" y="-388.5" font-family="Courier New" font-size="14.00">uint32 (4)</text>
<polyline fill="none" stroke="black" points="824.12,-380.3 824.12,-405.1 "/>
<text text-anchor="middle" x="874.13" y="-388.5" font-family="Courier New" font-size="14.00">uint32 (4)</text>
<polyline fill="none" stroke="black" points="924.14,-380.3 924.14,-405.1 "/>
<text text-anchor="middle" x="974.14" y="-388.5" font-family="Courier New" font-size="14.00">uint32 (4)</text>
<polyline fill="none" stroke="black" points="1024.15,-380.3 1024.15,-405.1 "/>
<text text-anchor="middle" x="1074.16" y="-388.5" font-family="Courier New" font-size="14.00">uint32 (4)</text>
<polyline fill="none" stroke="black" points="1124.16,-380.3 1124.16,-405.1 "/>
<text text-anchor="middle" x="1174.17" y="-388.5" font-family="Courier New" font-size="14.00">uint32 (4)</text>
<polyline fill="none" stroke="black" points="1224.18,-380.3 1224.18,-405.1 "/>
<text text-anchor="middle" x="1274.18" y="-388.5" font-family="Courier New" font-size="14.00">uint32 (4)</text>
<polyline fill="none" stroke="black" points="1324.19,-380.3 1324.19,-405.1 "/>
<text text-anchor="middle" x="1374.2" y="-388.5" font-family="Courier New" font-size="14.00">uint32 (4)</text>
<polyline fill="none" stroke="black" points="1424.21,-380.3 1424.21,-405.1 "/>
<text text-anchor="middle" x="1474.21" y="-388.5" font-family="Courier New" font-size="14.00">uint32 (4)</text>
<polyline fill="none" stroke="black" points="724.11,-380.3 1524.22,-380.3 "/>
<text text-anchor="middle" x="823.82" y="-363.7" font-family="Courier New" font-size="14.00">unallocated (16)</text>
<polyline fill="none" stroke="black" points="923.53,-355.5 923.53,-380.3 "/>
<text text-anchor="middle" x="998.54" y="-363.7" font-family="Courier New" font-size="14.00">uint32 (4)</text>
<polyline fill="none" stroke="black" points="1073.54,-355.5 1073.54,-380.3 "/>
<text text-anchor="middle" x="1148.55" y="-363.7" font-family="Courier New" font-size="14.00">uint32 (4)</text>
<polyline fill="none" stroke="black" points="1223.56,-355.5 1223.56,-380.3 "/>
<text text-anchor="middle" x="1298.57" y="-363.7" font-family="Courier New" font-size="14.00">uint32 (4)</text>
<polyline fill="none" stroke="black" points="1373.57,-355.5 1373.57,-380.3 "/>
<text text-anchor="middle" x="1448.58" y="-363.7" font-family="Courier New" font-size="14.00">uint32 (4)</text>
</g>
<!-- 5&#45;&gt;1 -->
<g id="edge1" class="edge">
<title>5:13&#45;&gt;1</title>
<path fill="none" stroke="black" d="M620.1,-251.1C665.25,-251.1 620.72,-318.04 656.1,-346.1 659.33,-348.67 662.62,-351.15 665.97,-353.56"/>
<polygon fill="black" stroke="black" points="664.18,-356.57 674.4,-359.38 668.16,-350.82 664.18,-356.57"/>
</g>
<!-- 2 -->
<g id="node3" class="node">
<title>2</title>
<polygon fill="#f2f2f2" stroke="black" points="927.94,-212.1 927.94,-336.1 1270.79,-336.1 1270.79,-212.1 927.94,-212.1"/>
<text text-anchor="middle" x="1099.36" y="-319.5" font-family="Courier New" font-size="14.00">GlobalGameSettings &lt;&lt;Struct&gt;&gt;</text>
<polyline fill="none" stroke="black" points="927.94,-311.3 1270.79,-311.3 "/>
<text text-anchor="middle" x="952.74" y="-294.7" font-family="Courier New" font-size="14.00">slot</text>
<polyline fill="none" stroke="black" points="927.94,-286.5 977.54,-286.5 "/>
<text text-anchor="middle" x="952.74" y="-269.9" font-family="Courier New" font-size="14.00">2</text>
<polyline fill="none" stroke="black" points="927.94,-261.7 977.54,-261.7 "/>
<text text-anchor="middle" x="952.74" y="-245.1" font-family="Courier New" font-size="14.00">3</text>
<polyline fill="none" stroke="black" points="927.94,-236.9 977.54,-236.9 "/>
<text text-anchor="middle" x="952.74" y="-220.3" font-family="Courier New" font-size="14.00">4</text>
<polyline fill="none" stroke="black" points="977.54,-212.1 977.54,-311.3 "/>
<text text-anchor="middle" x="1124.16" y="-294.7" font-family="Courier New" font-size="14.00">type: variable (bytes)</text>
<polyline fill="none" stroke="black" points="977.54,-286.5 1270.79,-286.5 "/>
<text text-anchor="middle" x="1123.96" y="-269.9" font-family="Courier New" font-size="14.00">uint256: entryFee (32)</text>
<polyline fill="none" stroke="black" points="977.54,-261.7 1270.79,-261.7 "/>
<text text-anchor="middle" x="1124.16" y="-245.1" font-family="Courier New" font-size="14.00">uint256: minimumTurnDuration (32)</text>
<polyline fill="none" stroke="black" points="977.54,-236.9 1270.79,-236.9 "/>
<text text-anchor="middle" x="1124.16" y="-220.3" font-family="Courier New" font-size="14.00">uint256: minimumJoinDuration (32)</text>
</g>
<!-- 5&#45;&gt;2 -->
<g id="edge2" class="edge">
<title>5:17&#45;&gt;2</title>
<path fill="none" stroke="black" d="M620.05,-227.1C718.77,-227.1 828.41,-237.14 917.78,-247.94"/>
<polygon fill="black" stroke="black" points="917.4,-251.42 927.75,-249.16 918.25,-244.47 917.4,-251.42"/>
</g>
<!-- 3 -->
<g id="node4" class="node">
<title>3</title>
<polygon fill="#f2f2f2" stroke="black" points="656.1,-118.9 656.1,-193.3 1542.63,-193.3 1542.63,-118.9 656.1,-118.9"/>
<text text-anchor="middle" x="1099.36" y="-176.7" font-family="Courier New" font-size="14.00">Game &lt;&lt;Struct&gt;&gt;</text>
<polyline fill="none" stroke="black" points="656.1,-168.5 1542.63,-168.5 "/>
<text text-anchor="middle" x="680.9" y="-151.9" font-family="Courier New" font-size="14.00">slot</text>
<polyline fill="none" stroke="black" points="656.1,-143.7 705.7,-143.7 "/>
<text text-anchor="middle" x="680.9" y="-127.1" font-family="Courier New" font-size="14.00">0</text>
<polyline fill="none" stroke="black" points="705.7,-118.9 705.7,-168.5 "/>
<text text-anchor="middle" x="1124.16" y="-151.9" font-family="Courier New" font-size="14.00">type: variable (bytes)</text>
<polyline fill="none" stroke="black" points="705.7,-143.7 1542.63,-143.7 "/>
<text text-anchor="middle" x="801.92" y="-127.1" font-family="Courier New" font-size="14.00">uint64: createdAt (8)</text>
<polyline fill="none" stroke="black" points="898.13,-118.9 898.13,-143.7 "/>
<text text-anchor="middle" x="994.34" y="-127.1" font-family="Courier New" font-size="14.00">uint64: prizePool (8)</text>
<polyline fill="none" stroke="black" points="1090.56,-118.9 1090.56,-143.7 "/>
<text text-anchor="middle" x="1195.17" y="-127.1" font-family="Courier New" font-size="14.00">uint64: lastDrawnAt (8)</text>
<polyline fill="none" stroke="black" points="1299.79,-118.9 1299.79,-143.7 "/>
<text text-anchor="middle" x="1421.21" y="-127.1" font-family="Courier New" font-size="14.00">uint64: lastDrawnNumber (8)</text>
</g>
<!-- 5&#45;&gt;3 -->
<g id="edge3" class="edge">
<title>5:22&#45;&gt;3</title>
<path fill="none" stroke="black" d="M620.1,-202.1C676.57,-202.1 736.63,-198.88 794.43,-194.15"/>
<polygon fill="black" stroke="black" points="794.76,-197.63 804.43,-193.31 794.18,-190.66 794.76,-197.63"/>
</g>
<!-- 4 -->
<g id="node5" class="node">
<title>4</title>
<polygon fill="#f2f2f2" stroke="black" points="898.93,-0.5 898.93,-99.7 1299.79,-99.7 1299.79,-0.5 898.93,-0.5"/>
<text text-anchor="middle" x="1099.36" y="-83.1" font-family="Courier New" font-size="14.00">BingoCard &lt;&lt;Struct&gt;&gt;</text>
<polyline fill="none" stroke="black" points="898.93,-74.9 1299.79,-74.9 "/>
<text text-anchor="middle" x="923.74" y="-58.3" font-family="Courier New" font-size="14.00">slot</text>
<polyline fill="none" stroke="black" points="898.93,-50.1 948.54,-50.1 "/>
<text text-anchor="middle" x="923.74" y="-33.5" font-family="Courier New" font-size="14.00">0</text>
<polyline fill="none" stroke="black" points="898.93,-25.3 948.54,-25.3 "/>
<text text-anchor="middle" x="923.74" y="-8.7" font-family="Courier New" font-size="14.00">1</text>
<polyline fill="none" stroke="black" points="948.54,-0.5 948.54,-74.9 "/>
<text text-anchor="middle" x="1124.16" y="-58.3" font-family="Courier New" font-size="14.00">type: variable (bytes)</text>
<polyline fill="none" stroke="black" points="948.54,-50.1 1299.79,-50.1 "/>
<text text-anchor="middle" x="1123.96" y="-33.5" font-family="Courier New" font-size="14.00">uint256: numberStorage (32)</text>
<polyline fill="none" stroke="black" points="948.54,-25.3 1299.79,-25.3 "/>
<text text-anchor="middle" x="1023.75" y="-8.7" font-family="Courier New" font-size="14.00">unallocated (28)</text>
<polyline fill="none" stroke="black" points="1098.96,-0.5 1098.96,-25.3 "/>
<text text-anchor="middle" x="1199.38" y="-8.7" font-family="Courier New" font-size="14.00">uint32: hitStorage (4)</text>
</g>
<!-- 5&#45;&gt;4 -->
<g id="edge4" class="edge">
<title>5:25&#45;&gt;4</title>
<path fill="none" stroke="black" d="M620.1,-177.1C654.29,-177.1 628.03,-128.64 656.1,-109.1 723.08,-62.46 809.84,-44.22 888.76,-38.9"/>
<polygon fill="black" stroke="black" points="889.07,-42.39 898.84,-38.28 888.65,-35.4 889.07,-42.39"/>
</g>
</g>
</svg>
